<mxfile host="app.diagrams.net" agent="Mozilla/5.0 (Windows NT 10.0; Win64; x64) AppleWebKit/537.36 (KHTML, like Gecko) Chrome/137.0.0.0 Safari/537.36" version="27.1.4" pages="2">
  <diagram name="Flow Diagrams" id="lLYAoKqStlIAqEvgO2V0">
    <mxGraphModel dx="872" dy="1642" grid="1" gridSize="10" guides="1" tooltips="1" connect="1" arrows="1" fold="1" page="1" pageScale="1" pageWidth="827" pageHeight="1169" math="0" shadow="0">
      <root>
        <mxCell id="0" />
        <mxCell id="1" parent="0" />
        <mxCell id="9IGutB_m8gxXMHDGUZIi-1" style="edgeStyle=orthogonalEdgeStyle;rounded=0;orthogonalLoop=1;jettySize=auto;html=1;entryX=0;entryY=0.5;entryDx=0;entryDy=0;" edge="1" parent="1" source="9IGutB_m8gxXMHDGUZIi-2" target="9IGutB_m8gxXMHDGUZIi-8">
          <mxGeometry relative="1" as="geometry" />
        </mxCell>
        <mxCell id="9IGutB_m8gxXMHDGUZIi-2" value="Place Order by Customer" style="rounded=0;whiteSpace=wrap;html=1;" vertex="1" parent="1">
          <mxGeometry x="140" y="200" width="120" height="60" as="geometry" />
        </mxCell>
        <mxCell id="9IGutB_m8gxXMHDGUZIi-3" value="3rd step" style="text;html=1;align=center;verticalAlign=middle;whiteSpace=wrap;rounded=0;" vertex="1" parent="1">
          <mxGeometry x="630" y="170" width="60" height="30" as="geometry" />
        </mxCell>
        <mxCell id="9IGutB_m8gxXMHDGUZIi-4" value="1st step" style="text;html=1;align=center;verticalAlign=middle;whiteSpace=wrap;rounded=0;" vertex="1" parent="1">
          <mxGeometry x="130" y="160" width="60" height="30" as="geometry" />
        </mxCell>
        <mxCell id="9IGutB_m8gxXMHDGUZIi-5" style="edgeStyle=orthogonalEdgeStyle;rounded=0;orthogonalLoop=1;jettySize=auto;html=1;exitX=0.5;exitY=1;exitDx=0;exitDy=0;entryX=0.5;entryY=0;entryDx=0;entryDy=0;" edge="1" parent="1" source="9IGutB_m8gxXMHDGUZIi-6" target="9IGutB_m8gxXMHDGUZIi-19">
          <mxGeometry relative="1" as="geometry" />
        </mxCell>
        <mxCell id="9IGutB_m8gxXMHDGUZIi-6" value="Receive Order to delivery boy" style="rounded=0;whiteSpace=wrap;html=1;" vertex="1" parent="1">
          <mxGeometry x="655" y="200" width="120" height="60" as="geometry" />
        </mxCell>
        <mxCell id="9IGutB_m8gxXMHDGUZIi-7" style="edgeStyle=orthogonalEdgeStyle;rounded=0;orthogonalLoop=1;jettySize=auto;html=1;entryX=0;entryY=0.5;entryDx=0;entryDy=0;" edge="1" parent="1" source="9IGutB_m8gxXMHDGUZIi-8" target="9IGutB_m8gxXMHDGUZIi-87">
          <mxGeometry relative="1" as="geometry" />
        </mxCell>
        <mxCell id="9IGutB_m8gxXMHDGUZIi-8" value="Search for availability and near location of the delivery boy" style="rounded=0;whiteSpace=wrap;html=1;" vertex="1" parent="1">
          <mxGeometry x="320" y="200" width="120" height="60" as="geometry" />
        </mxCell>
        <mxCell id="9IGutB_m8gxXMHDGUZIi-9" value="" style="edgeStyle=orthogonalEdgeStyle;rounded=0;orthogonalLoop=1;jettySize=auto;html=1;" edge="1" parent="1" source="9IGutB_m8gxXMHDGUZIi-10" target="9IGutB_m8gxXMHDGUZIi-26">
          <mxGeometry relative="1" as="geometry" />
        </mxCell>
        <mxCell id="9IGutB_m8gxXMHDGUZIi-10" value="Customer will get Notification of acceptance also get live location of delivery boy" style="rounded=0;whiteSpace=wrap;html=1;" vertex="1" parent="1">
          <mxGeometry x="640" y="590" width="120" height="80" as="geometry" />
        </mxCell>
        <mxCell id="9IGutB_m8gxXMHDGUZIi-11" value="2nd step" style="text;html=1;align=center;verticalAlign=middle;whiteSpace=wrap;rounded=0;" vertex="1" parent="1">
          <mxGeometry x="300" y="160" width="60" height="30" as="geometry" />
        </mxCell>
        <mxCell id="9IGutB_m8gxXMHDGUZIi-12" style="edgeStyle=orthogonalEdgeStyle;rounded=0;orthogonalLoop=1;jettySize=auto;html=1;entryX=1;entryY=0.5;entryDx=0;entryDy=0;" edge="1" parent="1" source="9IGutB_m8gxXMHDGUZIi-13" target="9IGutB_m8gxXMHDGUZIi-14">
          <mxGeometry relative="1" as="geometry" />
        </mxCell>
        <mxCell id="9IGutB_m8gxXMHDGUZIi-13" value="On successful order completion the delivery boy will complete the order" style="rounded=0;whiteSpace=wrap;html=1;" vertex="1" parent="1">
          <mxGeometry x="330" y="590" width="120" height="80" as="geometry" />
        </mxCell>
        <mxCell id="9IGutB_m8gxXMHDGUZIi-14" value="Customer will be able to give feedback" style="rounded=0;whiteSpace=wrap;html=1;" vertex="1" parent="1">
          <mxGeometry x="150" y="590" width="120" height="80" as="geometry" />
        </mxCell>
        <mxCell id="9IGutB_m8gxXMHDGUZIi-15" style="edgeStyle=orthogonalEdgeStyle;rounded=0;orthogonalLoop=1;jettySize=auto;html=1;entryX=0;entryY=0.5;entryDx=0;entryDy=0;" edge="1" parent="1" source="9IGutB_m8gxXMHDGUZIi-16" target="9IGutB_m8gxXMHDGUZIi-2">
          <mxGeometry relative="1" as="geometry" />
        </mxCell>
        <mxCell id="9IGutB_m8gxXMHDGUZIi-16" value="Start" style="ellipse;whiteSpace=wrap;html=1;" vertex="1" parent="1">
          <mxGeometry x="20" y="205" width="70" height="50" as="geometry" />
        </mxCell>
        <mxCell id="9IGutB_m8gxXMHDGUZIi-17" style="edgeStyle=orthogonalEdgeStyle;rounded=0;orthogonalLoop=1;jettySize=auto;html=1;entryX=0.5;entryY=1;entryDx=0;entryDy=0;" edge="1" parent="1" source="9IGutB_m8gxXMHDGUZIi-19" target="9IGutB_m8gxXMHDGUZIi-8">
          <mxGeometry relative="1" as="geometry" />
        </mxCell>
        <mxCell id="9IGutB_m8gxXMHDGUZIi-18" style="edgeStyle=orthogonalEdgeStyle;rounded=0;orthogonalLoop=1;jettySize=auto;html=1;entryX=0.5;entryY=0;entryDx=0;entryDy=0;" edge="1" parent="1" source="9IGutB_m8gxXMHDGUZIi-19" target="9IGutB_m8gxXMHDGUZIi-10">
          <mxGeometry relative="1" as="geometry" />
        </mxCell>
        <mxCell id="9IGutB_m8gxXMHDGUZIi-19" value="" style="rhombus;whiteSpace=wrap;html=1;" vertex="1" parent="1">
          <mxGeometry x="675" y="350" width="80" height="80" as="geometry" />
        </mxCell>
        <mxCell id="9IGutB_m8gxXMHDGUZIi-20" value="Accept" style="text;html=1;align=center;verticalAlign=middle;whiteSpace=wrap;rounded=0;" vertex="1" parent="1">
          <mxGeometry x="755" y="360" width="60" height="30" as="geometry" />
        </mxCell>
        <mxCell id="9IGutB_m8gxXMHDGUZIi-21" value="Reject" style="text;html=1;align=center;verticalAlign=middle;whiteSpace=wrap;rounded=0;" vertex="1" parent="1">
          <mxGeometry x="620" y="360" width="60" height="30" as="geometry" />
        </mxCell>
        <mxCell id="9IGutB_m8gxXMHDGUZIi-22" value="7th step" style="text;html=1;align=center;verticalAlign=middle;whiteSpace=wrap;rounded=0;" vertex="1" parent="1">
          <mxGeometry x="140" y="560" width="60" height="30" as="geometry" />
        </mxCell>
        <mxCell id="9IGutB_m8gxXMHDGUZIi-23" value="4th step" style="text;html=1;align=center;verticalAlign=middle;whiteSpace=wrap;rounded=0;" vertex="1" parent="1">
          <mxGeometry x="640" y="560" width="60" height="30" as="geometry" />
        </mxCell>
        <mxCell id="9IGutB_m8gxXMHDGUZIi-24" value="5th step" style="text;html=1;align=center;verticalAlign=middle;whiteSpace=wrap;rounded=0;" vertex="1" parent="1">
          <mxGeometry x="500" y="560" width="60" height="30" as="geometry" />
        </mxCell>
        <mxCell id="9IGutB_m8gxXMHDGUZIi-25" value="" style="edgeStyle=orthogonalEdgeStyle;rounded=0;orthogonalLoop=1;jettySize=auto;html=1;" edge="1" parent="1" source="9IGutB_m8gxXMHDGUZIi-26" target="9IGutB_m8gxXMHDGUZIi-13">
          <mxGeometry relative="1" as="geometry" />
        </mxCell>
        <mxCell id="9IGutB_m8gxXMHDGUZIi-26" value="Delivery boy will get location of customer" style="rounded=0;whiteSpace=wrap;html=1;" vertex="1" parent="1">
          <mxGeometry x="500" y="590" width="120" height="80" as="geometry" />
        </mxCell>
        <mxCell id="9IGutB_m8gxXMHDGUZIi-27" value="6th step" style="text;html=1;align=center;verticalAlign=middle;whiteSpace=wrap;rounded=0;" vertex="1" parent="1">
          <mxGeometry x="320" y="560" width="60" height="30" as="geometry" />
        </mxCell>
        <mxCell id="9IGutB_m8gxXMHDGUZIi-28" value="&lt;h1 style=&quot;margin-top: 0px;&quot;&gt;Order Flow Chart&lt;/h1&gt;&lt;p&gt;&lt;br&gt;&lt;/p&gt;" style="text;html=1;whiteSpace=wrap;overflow=hidden;rounded=0;" vertex="1" parent="1">
          <mxGeometry x="30" y="110" width="180" height="70" as="geometry" />
        </mxCell>
        <mxCell id="9IGutB_m8gxXMHDGUZIi-29" value="&lt;h1 style=&quot;margin-top: 0px;&quot;&gt;Registration Flow Chart&lt;/h1&gt;" style="text;html=1;whiteSpace=wrap;overflow=hidden;rounded=0;" vertex="1" parent="1">
          <mxGeometry x="50" y="-1120" width="180" height="70" as="geometry" />
        </mxCell>
        <mxCell id="9IGutB_m8gxXMHDGUZIi-30" value="" style="edgeStyle=orthogonalEdgeStyle;rounded=0;orthogonalLoop=1;jettySize=auto;html=1;" edge="1" parent="1" source="9IGutB_m8gxXMHDGUZIi-31" target="9IGutB_m8gxXMHDGUZIi-33">
          <mxGeometry relative="1" as="geometry" />
        </mxCell>
        <mxCell id="9IGutB_m8gxXMHDGUZIi-31" value="Start" style="ellipse;whiteSpace=wrap;html=1;" vertex="1" parent="1">
          <mxGeometry x="80" y="-1020" width="90" height="40" as="geometry" />
        </mxCell>
        <mxCell id="9IGutB_m8gxXMHDGUZIi-32" value="" style="edgeStyle=orthogonalEdgeStyle;rounded=0;orthogonalLoop=1;jettySize=auto;html=1;" edge="1" parent="1" source="9IGutB_m8gxXMHDGUZIi-33" target="9IGutB_m8gxXMHDGUZIi-35">
          <mxGeometry relative="1" as="geometry" />
        </mxCell>
        <mxCell id="9IGutB_m8gxXMHDGUZIi-33" value="Landing Page Having option of signup and login" style="rounded=0;whiteSpace=wrap;html=1;" vertex="1" parent="1">
          <mxGeometry x="340" y="-1030" width="120" height="60" as="geometry" />
        </mxCell>
        <mxCell id="9IGutB_m8gxXMHDGUZIi-34" value="" style="edgeStyle=orthogonalEdgeStyle;rounded=0;orthogonalLoop=1;jettySize=auto;html=1;" edge="1" parent="1" source="9IGutB_m8gxXMHDGUZIi-35" target="9IGutB_m8gxXMHDGUZIi-38">
          <mxGeometry relative="1" as="geometry" />
        </mxCell>
        <mxCell id="9IGutB_m8gxXMHDGUZIi-35" value="Registration Page&lt;div&gt;having option to register as a customer or as delivery boy&lt;/div&gt;" style="rounded=0;whiteSpace=wrap;html=1;" vertex="1" parent="1">
          <mxGeometry x="610" y="-1030" width="140" height="60" as="geometry" />
        </mxCell>
        <mxCell id="9IGutB_m8gxXMHDGUZIi-36" style="edgeStyle=orthogonalEdgeStyle;rounded=0;orthogonalLoop=1;jettySize=auto;html=1;exitX=0;exitY=0.5;exitDx=0;exitDy=0;entryX=1;entryY=0.5;entryDx=0;entryDy=0;" edge="1" parent="1" source="9IGutB_m8gxXMHDGUZIi-38" target="9IGutB_m8gxXMHDGUZIi-39">
          <mxGeometry relative="1" as="geometry" />
        </mxCell>
        <mxCell id="9IGutB_m8gxXMHDGUZIi-37" style="edgeStyle=orthogonalEdgeStyle;rounded=0;orthogonalLoop=1;jettySize=auto;html=1;exitX=1;exitY=0.5;exitDx=0;exitDy=0;entryX=0;entryY=0.5;entryDx=0;entryDy=0;" edge="1" parent="1" source="9IGutB_m8gxXMHDGUZIi-38" target="9IGutB_m8gxXMHDGUZIi-42">
          <mxGeometry relative="1" as="geometry" />
        </mxCell>
        <mxCell id="9IGutB_m8gxXMHDGUZIi-38" value="" style="rhombus;whiteSpace=wrap;html=1;" vertex="1" parent="1">
          <mxGeometry x="540" y="-890" width="80" height="80" as="geometry" />
        </mxCell>
        <mxCell id="9IGutB_m8gxXMHDGUZIi-39" value="Normal Registration" style="rounded=0;whiteSpace=wrap;html=1;" vertex="1" parent="1">
          <mxGeometry x="370" y="-820" width="120" height="60" as="geometry" />
        </mxCell>
        <mxCell id="9IGutB_m8gxXMHDGUZIi-40" value="Register as a customer" style="text;html=1;align=center;verticalAlign=middle;whiteSpace=wrap;rounded=0;" vertex="1" parent="1">
          <mxGeometry x="450" y="-880" width="80" height="30" as="geometry" />
        </mxCell>
        <mxCell id="9IGutB_m8gxXMHDGUZIi-41" value="Register as delivery boy" style="text;html=1;align=center;verticalAlign=middle;whiteSpace=wrap;rounded=0;" vertex="1" parent="1">
          <mxGeometry x="640" y="-880" width="80" height="30" as="geometry" />
        </mxCell>
        <mxCell id="9IGutB_m8gxXMHDGUZIi-42" value="Get Personal information and accept manually&amp;nbsp;" style="rounded=0;whiteSpace=wrap;html=1;" vertex="1" parent="1">
          <mxGeometry x="660" y="-820" width="120" height="60" as="geometry" />
        </mxCell>
        <mxCell id="9IGutB_m8gxXMHDGUZIi-43" style="edgeStyle=orthogonalEdgeStyle;rounded=0;orthogonalLoop=1;jettySize=auto;html=1;exitX=0.5;exitY=1;exitDx=0;exitDy=0;entryX=0.5;entryY=0;entryDx=0;entryDy=0;" edge="1" parent="1" source="9IGutB_m8gxXMHDGUZIi-46" target="9IGutB_m8gxXMHDGUZIi-50">
          <mxGeometry relative="1" as="geometry" />
        </mxCell>
        <mxCell id="9IGutB_m8gxXMHDGUZIi-44" style="edgeStyle=orthogonalEdgeStyle;rounded=0;orthogonalLoop=1;jettySize=auto;html=1;exitX=0.5;exitY=1;exitDx=0;exitDy=0;entryX=0.5;entryY=0;entryDx=0;entryDy=0;" edge="1" parent="1" source="9IGutB_m8gxXMHDGUZIi-46" target="9IGutB_m8gxXMHDGUZIi-53">
          <mxGeometry relative="1" as="geometry" />
        </mxCell>
        <mxCell id="9IGutB_m8gxXMHDGUZIi-45" style="edgeStyle=orthogonalEdgeStyle;rounded=0;orthogonalLoop=1;jettySize=auto;html=1;exitX=0.5;exitY=1;exitDx=0;exitDy=0;entryX=0.5;entryY=0;entryDx=0;entryDy=0;" edge="1" parent="1" source="9IGutB_m8gxXMHDGUZIi-46" target="9IGutB_m8gxXMHDGUZIi-55">
          <mxGeometry relative="1" as="geometry" />
        </mxCell>
        <mxCell id="9IGutB_m8gxXMHDGUZIi-46" value="API Gateway" style="rounded=0;whiteSpace=wrap;html=1;" vertex="1" parent="1">
          <mxGeometry x="340" y="1310" width="120" height="60" as="geometry" />
        </mxCell>
        <mxCell id="9IGutB_m8gxXMHDGUZIi-47" value="&lt;h1 style=&quot;margin-top: 0px;&quot;&gt;Architecture Diagram&lt;/h1&gt;" style="text;html=1;whiteSpace=wrap;overflow=hidden;rounded=0;" vertex="1" parent="1">
          <mxGeometry x="30" y="1170" width="180" height="60" as="geometry" />
        </mxCell>
        <mxCell id="9IGutB_m8gxXMHDGUZIi-48" value="" style="edgeStyle=orthogonalEdgeStyle;rounded=0;orthogonalLoop=1;jettySize=auto;html=1;" edge="1" parent="1" source="9IGutB_m8gxXMHDGUZIi-49" target="9IGutB_m8gxXMHDGUZIi-46">
          <mxGeometry relative="1" as="geometry" />
        </mxCell>
        <mxCell id="9IGutB_m8gxXMHDGUZIi-49" value="Start" style="ellipse;whiteSpace=wrap;html=1;" vertex="1" parent="1">
          <mxGeometry x="350" y="1200" width="100" height="80" as="geometry" />
        </mxCell>
        <mxCell id="9IGutB_m8gxXMHDGUZIi-50" value="Order Service" style="rounded=0;whiteSpace=wrap;html=1;" vertex="1" parent="1">
          <mxGeometry x="140" y="1420" width="120" height="60" as="geometry" />
        </mxCell>
        <mxCell id="9IGutB_m8gxXMHDGUZIi-51" value="" style="edgeStyle=orthogonalEdgeStyle;rounded=0;orthogonalLoop=1;jettySize=auto;html=1;entryX=0.5;entryY=0;entryDx=0;entryDy=0;entryPerimeter=0;" edge="1" parent="1" target="9IGutB_m8gxXMHDGUZIi-56">
          <mxGeometry relative="1" as="geometry">
            <mxPoint x="200" y="1480" as="sourcePoint" />
            <mxPoint x="200" y="1530" as="targetPoint" />
          </mxGeometry>
        </mxCell>
        <mxCell id="9IGutB_m8gxXMHDGUZIi-52" value="" style="edgeStyle=orthogonalEdgeStyle;rounded=0;orthogonalLoop=1;jettySize=auto;html=1;" edge="1" parent="1" source="9IGutB_m8gxXMHDGUZIi-53" target="9IGutB_m8gxXMHDGUZIi-85">
          <mxGeometry relative="1" as="geometry" />
        </mxCell>
        <mxCell id="9IGutB_m8gxXMHDGUZIi-53" value="Notification Service" style="rounded=0;whiteSpace=wrap;html=1;" vertex="1" parent="1">
          <mxGeometry x="340" y="1420" width="120" height="60" as="geometry" />
        </mxCell>
        <mxCell id="9IGutB_m8gxXMHDGUZIi-54" value="" style="edgeStyle=orthogonalEdgeStyle;rounded=0;orthogonalLoop=1;jettySize=auto;html=1;" edge="1" parent="1" source="9IGutB_m8gxXMHDGUZIi-55" target="9IGutB_m8gxXMHDGUZIi-57">
          <mxGeometry relative="1" as="geometry" />
        </mxCell>
        <mxCell id="9IGutB_m8gxXMHDGUZIi-55" value="Location Service" style="rounded=0;whiteSpace=wrap;html=1;" vertex="1" parent="1">
          <mxGeometry x="552.5" y="1420" width="120" height="60" as="geometry" />
        </mxCell>
        <mxCell id="9IGutB_m8gxXMHDGUZIi-56" value="Order&amp;nbsp;&lt;div&gt;DB(Postgres)&lt;/div&gt;" style="shape=cylinder3;whiteSpace=wrap;html=1;boundedLbl=1;backgroundOutline=1;size=15;" vertex="1" parent="1">
          <mxGeometry x="160" y="1530" width="80" height="80" as="geometry" />
        </mxCell>
        <mxCell id="9IGutB_m8gxXMHDGUZIi-57" value="Location DB(Redis)" style="shape=cylinder3;whiteSpace=wrap;html=1;boundedLbl=1;backgroundOutline=1;size=15;" vertex="1" parent="1">
          <mxGeometry x="582.5" y="1530" width="60" height="80" as="geometry" />
        </mxCell>
        <mxCell id="9IGutB_m8gxXMHDGUZIi-58" style="edgeStyle=orthogonalEdgeStyle;rounded=0;orthogonalLoop=1;jettySize=auto;html=1;entryX=0.5;entryY=0;entryDx=0;entryDy=0;" edge="1" parent="1" source="9IGutB_m8gxXMHDGUZIi-59" target="9IGutB_m8gxXMHDGUZIi-62">
          <mxGeometry relative="1" as="geometry" />
        </mxCell>
        <mxCell id="9IGutB_m8gxXMHDGUZIi-59" value="Order Service" style="rounded=0;whiteSpace=wrap;html=1;" vertex="1" parent="1">
          <mxGeometry x="40" y="1670" width="120" height="60" as="geometry" />
        </mxCell>
        <mxCell id="9IGutB_m8gxXMHDGUZIi-60" value="RabbitMQ" style="text;whiteSpace=wrap;" vertex="1" parent="1">
          <mxGeometry x="635" y="1830" width="90" height="40" as="geometry" />
        </mxCell>
        <mxCell id="9IGutB_m8gxXMHDGUZIi-61" style="edgeStyle=orthogonalEdgeStyle;rounded=0;orthogonalLoop=1;jettySize=auto;html=1;exitX=0.5;exitY=1;exitDx=0;exitDy=0;entryX=0;entryY=0.5;entryDx=0;entryDy=0;" edge="1" parent="1" source="9IGutB_m8gxXMHDGUZIi-62" target="9IGutB_m8gxXMHDGUZIi-65">
          <mxGeometry relative="1" as="geometry" />
        </mxCell>
        <mxCell id="9IGutB_m8gxXMHDGUZIi-62" value="Celery" style="rounded=0;whiteSpace=wrap;html=1;" vertex="1" parent="1">
          <mxGeometry x="40" y="1790" width="120" height="60" as="geometry" />
        </mxCell>
        <mxCell id="9IGutB_m8gxXMHDGUZIi-63" value="Put 10 matching deliverer in Matching Queue&amp;nbsp;" style="text;html=1;align=center;verticalAlign=middle;whiteSpace=wrap;rounded=0;" vertex="1" parent="1">
          <mxGeometry x="340" y="1890" width="130" height="30" as="geometry" />
        </mxCell>
        <mxCell id="9IGutB_m8gxXMHDGUZIi-64" style="edgeStyle=orthogonalEdgeStyle;rounded=0;orthogonalLoop=1;jettySize=auto;html=1;exitX=0.5;exitY=1;exitDx=0;exitDy=0;entryX=1;entryY=0.5;entryDx=0;entryDy=0;" edge="1" parent="1" source="9IGutB_m8gxXMHDGUZIi-65" target="9IGutB_m8gxXMHDGUZIi-67">
          <mxGeometry relative="1" as="geometry" />
        </mxCell>
        <mxCell id="9IGutB_m8gxXMHDGUZIi-65" value="Matching Queue" style="rounded=1;whiteSpace=wrap;html=1;" vertex="1" parent="1">
          <mxGeometry x="570" y="1900" width="200" height="60" as="geometry" />
        </mxCell>
        <mxCell id="9IGutB_m8gxXMHDGUZIi-66" style="edgeStyle=orthogonalEdgeStyle;rounded=0;orthogonalLoop=1;jettySize=auto;html=1;exitX=0.5;exitY=1;exitDx=0;exitDy=0;entryX=0;entryY=0.5;entryDx=0;entryDy=0;" edge="1" parent="1" source="9IGutB_m8gxXMHDGUZIi-67" target="9IGutB_m8gxXMHDGUZIi-72">
          <mxGeometry relative="1" as="geometry" />
        </mxCell>
        <mxCell id="9IGutB_m8gxXMHDGUZIi-67" value="Notification Service" style="rounded=0;whiteSpace=wrap;html=1;" vertex="1" parent="1">
          <mxGeometry x="40" y="2020" width="120" height="60" as="geometry" />
        </mxCell>
        <mxCell id="9IGutB_m8gxXMHDGUZIi-68" value="Send Notification to the deliverer" style="text;html=1;align=center;verticalAlign=middle;whiteSpace=wrap;rounded=0;" vertex="1" parent="1">
          <mxGeometry x="270" y="2120" width="140" height="30" as="geometry" />
        </mxCell>
        <mxCell id="9IGutB_m8gxXMHDGUZIi-69" value="Get 1 matching deliverer from Matching&amp;nbsp; Queue" style="text;html=1;align=center;verticalAlign=middle;whiteSpace=wrap;rounded=0;" vertex="1" parent="1">
          <mxGeometry x="370" y="2020" width="140" height="30" as="geometry" />
        </mxCell>
        <mxCell id="9IGutB_m8gxXMHDGUZIi-70" style="edgeStyle=orthogonalEdgeStyle;rounded=0;orthogonalLoop=1;jettySize=auto;html=1;exitX=0.5;exitY=1;exitDx=0;exitDy=0;entryX=0.5;entryY=0;entryDx=0;entryDy=0;" edge="1" parent="1" source="9IGutB_m8gxXMHDGUZIi-72" target="9IGutB_m8gxXMHDGUZIi-77">
          <mxGeometry relative="1" as="geometry" />
        </mxCell>
        <mxCell id="9IGutB_m8gxXMHDGUZIi-71" style="edgeStyle=orthogonalEdgeStyle;rounded=0;orthogonalLoop=1;jettySize=auto;html=1;exitX=0.5;exitY=1;exitDx=0;exitDy=0;entryX=0.5;entryY=0;entryDx=0;entryDy=0;" edge="1" parent="1" source="9IGutB_m8gxXMHDGUZIi-72" target="9IGutB_m8gxXMHDGUZIi-80">
          <mxGeometry relative="1" as="geometry" />
        </mxCell>
        <mxCell id="9IGutB_m8gxXMHDGUZIi-72" value="" style="rhombus;whiteSpace=wrap;html=1;" vertex="1" parent="1">
          <mxGeometry x="640" y="2110" width="80" height="80" as="geometry" />
        </mxCell>
        <mxCell id="9IGutB_m8gxXMHDGUZIi-73" style="edgeStyle=orthogonalEdgeStyle;rounded=0;orthogonalLoop=1;jettySize=auto;html=1;exitX=0.5;exitY=0;exitDx=0;exitDy=0;entryX=0.548;entryY=1.053;entryDx=0;entryDy=0;entryPerimeter=0;" edge="1" parent="1" source="9IGutB_m8gxXMHDGUZIi-72" target="9IGutB_m8gxXMHDGUZIi-65">
          <mxGeometry relative="1" as="geometry" />
        </mxCell>
        <mxCell id="9IGutB_m8gxXMHDGUZIi-74" value="Reject" style="text;html=1;align=center;verticalAlign=middle;whiteSpace=wrap;rounded=0;" vertex="1" parent="1">
          <mxGeometry x="690" y="2090" width="60" height="30" as="geometry" />
        </mxCell>
        <mxCell id="9IGutB_m8gxXMHDGUZIi-75" value="Accept" style="text;html=1;align=center;verticalAlign=middle;whiteSpace=wrap;rounded=0;" vertex="1" parent="1">
          <mxGeometry x="690" y="2180" width="60" height="30" as="geometry" />
        </mxCell>
        <mxCell id="9IGutB_m8gxXMHDGUZIi-76" style="edgeStyle=orthogonalEdgeStyle;rounded=0;orthogonalLoop=1;jettySize=auto;html=1;exitX=0.5;exitY=1;exitDx=0;exitDy=0;entryX=1;entryY=0.5;entryDx=0;entryDy=0;" edge="1" parent="1" source="9IGutB_m8gxXMHDGUZIi-77" target="9IGutB_m8gxXMHDGUZIi-79">
          <mxGeometry relative="1" as="geometry" />
        </mxCell>
        <mxCell id="9IGutB_m8gxXMHDGUZIi-77" value="Acceptance Queue" style="rounded=1;whiteSpace=wrap;html=1;" vertex="1" parent="1">
          <mxGeometry x="580" y="2330" width="200" height="58" as="geometry" />
        </mxCell>
        <mxCell id="9IGutB_m8gxXMHDGUZIi-78" value="Put order in Acceptance Queue" style="text;html=1;align=center;verticalAlign=middle;whiteSpace=wrap;rounded=0;" vertex="1" parent="1">
          <mxGeometry x="680" y="2260" width="120" height="30" as="geometry" />
        </mxCell>
        <mxCell id="9IGutB_m8gxXMHDGUZIi-79" value="Location Service" style="rounded=0;whiteSpace=wrap;html=1;" vertex="1" parent="1">
          <mxGeometry x="45" y="2530" width="120" height="60" as="geometry" />
        </mxCell>
        <mxCell id="9IGutB_m8gxXMHDGUZIi-80" value="Notification Service" style="rounded=0;whiteSpace=wrap;html=1;" vertex="1" parent="1">
          <mxGeometry x="50" y="2330" width="120" height="60" as="geometry" />
        </mxCell>
        <mxCell id="9IGutB_m8gxXMHDGUZIi-81" value="Send Notification to the Customer" style="text;html=1;align=center;verticalAlign=middle;whiteSpace=wrap;rounded=0;" vertex="1" parent="1">
          <mxGeometry x="80" y="2230" width="140" height="30" as="geometry" />
        </mxCell>
        <mxCell id="9IGutB_m8gxXMHDGUZIi-82" value="Send deliverer location to the Customer" style="text;html=1;align=center;verticalAlign=middle;whiteSpace=wrap;rounded=0;" vertex="1" parent="1">
          <mxGeometry x="35" y="2500" width="140" height="30" as="geometry" />
        </mxCell>
        <mxCell id="9IGutB_m8gxXMHDGUZIi-83" value="Order Service" style="rounded=0;whiteSpace=wrap;html=1;" vertex="1" parent="1">
          <mxGeometry x="40" y="2640" width="120" height="60" as="geometry" />
        </mxCell>
        <mxCell id="9IGutB_m8gxXMHDGUZIi-84" value="Complete the order" style="text;html=1;align=center;verticalAlign=middle;whiteSpace=wrap;rounded=0;" vertex="1" parent="1">
          <mxGeometry x="30" y="2610" width="140" height="30" as="geometry" />
        </mxCell>
        <mxCell id="9IGutB_m8gxXMHDGUZIi-85" value="Notification&amp;nbsp;&lt;div&gt;DB(Postgres)&lt;/div&gt;" style="shape=cylinder3;whiteSpace=wrap;html=1;boundedLbl=1;backgroundOutline=1;size=15;" vertex="1" parent="1">
          <mxGeometry x="360" y="1530" width="80" height="80" as="geometry" />
        </mxCell>
        <mxCell id="9IGutB_m8gxXMHDGUZIi-86" style="edgeStyle=orthogonalEdgeStyle;rounded=0;orthogonalLoop=1;jettySize=auto;html=1;entryX=0;entryY=0.5;entryDx=0;entryDy=0;" edge="1" parent="1" source="9IGutB_m8gxXMHDGUZIi-87" target="9IGutB_m8gxXMHDGUZIi-6">
          <mxGeometry relative="1" as="geometry" />
        </mxCell>
        <mxCell id="9IGutB_m8gxXMHDGUZIi-87" value="" style="rhombus;whiteSpace=wrap;html=1;" vertex="1" parent="1">
          <mxGeometry x="510" y="190" width="80" height="80" as="geometry" />
        </mxCell>
        <mxCell id="9IGutB_m8gxXMHDGUZIi-88" value="Not Found" style="text;html=1;align=center;verticalAlign=middle;whiteSpace=wrap;rounded=0;" vertex="1" parent="1">
          <mxGeometry x="502.5" y="290" width="60" height="30" as="geometry" />
        </mxCell>
        <mxCell id="9IGutB_m8gxXMHDGUZIi-89" style="edgeStyle=orthogonalEdgeStyle;rounded=0;orthogonalLoop=1;jettySize=auto;html=1;exitX=0.5;exitY=1;exitDx=0;exitDy=0;entryX=0.587;entryY=1.007;entryDx=0;entryDy=0;entryPerimeter=0;" edge="1" parent="1" source="9IGutB_m8gxXMHDGUZIi-87" target="9IGutB_m8gxXMHDGUZIi-8">
          <mxGeometry relative="1" as="geometry" />
        </mxCell>
        <mxCell id="9IGutB_m8gxXMHDGUZIi-90" value="Found" style="text;html=1;align=center;verticalAlign=middle;whiteSpace=wrap;rounded=0;" vertex="1" parent="1">
          <mxGeometry x="582.5" y="230" width="60" height="30" as="geometry" />
        </mxCell>
        <mxCell id="9IGutB_m8gxXMHDGUZIi-91" value="Pick order and match deliverer" style="text;html=1;align=center;verticalAlign=middle;whiteSpace=wrap;rounded=0;" vertex="1" parent="1">
          <mxGeometry x="105" y="1750" width="130" height="30" as="geometry" />
        </mxCell>
      </root>
    </mxGraphModel>
  </diagram>
  <diagram name="Deployment Architecture" id="ZB3ncixGiXzHuIElh8pF">
    <mxGraphModel dx="2084" dy="1124" grid="1" gridSize="10" guides="1" tooltips="1" connect="1" arrows="1" fold="1" page="1" pageScale="1" pageWidth="1654" pageHeight="1169" math="0" shadow="0">
      <root>
        <mxCell id="0" />
        <mxCell id="1" parent="0" />
        <mxCell id="jOHFHPNlz4tJXmCEWdW9-1" value="VPC" style="sketch=0;outlineConnect=0;gradientColor=none;html=1;whiteSpace=wrap;fontSize=12;fontStyle=0;shape=mxgraph.aws4.group;grIcon=mxgraph.aws4.group_vpc;strokeColor=#879196;fillColor=none;verticalAlign=top;align=left;spacingLeft=30;fontColor=#879196;dashed=0;" parent="1" vertex="1">
          <mxGeometry x="190" y="60" width="1020" height="1050" as="geometry" />
        </mxCell>
        <mxCell id="jOHFHPNlz4tJXmCEWdW9-2" value="Availability Zone" style="fillColor=none;strokeColor=#147EBA;dashed=1;verticalAlign=top;fontStyle=0;fontColor=#147EBA;whiteSpace=wrap;html=1;" parent="1" vertex="1">
          <mxGeometry x="260" y="115" width="450" height="865" as="geometry" />
        </mxCell>
        <mxCell id="jOHFHPNlz4tJXmCEWdW9-3" value="Private subnet" style="points=[[0,0],[0.25,0],[0.5,0],[0.75,0],[1,0],[1,0.25],[1,0.5],[1,0.75],[1,1],[0.75,1],[0.5,1],[0.25,1],[0,1],[0,0.75],[0,0.5],[0,0.25]];outlineConnect=0;gradientColor=none;html=1;whiteSpace=wrap;fontSize=12;fontStyle=0;container=1;pointerEvents=0;collapsible=0;recursiveResize=0;shape=mxgraph.aws4.group;grIcon=mxgraph.aws4.group_security_group;grStroke=0;strokeColor=#00A4A6;fillColor=#E6F6F7;verticalAlign=top;align=left;spacingLeft=30;fontColor=#147EBA;dashed=0;" parent="1" vertex="1">
          <mxGeometry x="310" y="200" width="390" height="360" as="geometry" />
        </mxCell>
        <mxCell id="jOHFHPNlz4tJXmCEWdW9-51" value="ECS" style="outlineConnect=0;dashed=0;verticalLabelPosition=bottom;verticalAlign=top;align=center;html=1;shape=mxgraph.aws3.ecs;fillColor=#F58534;gradientColor=none;" parent="jOHFHPNlz4tJXmCEWdW9-3" vertex="1">
          <mxGeometry x="280" y="146.25" width="72" height="67.5" as="geometry" />
        </mxCell>
        <mxCell id="jOHFHPNlz4tJXmCEWdW9-52" value="RDS" style="sketch=0;points=[[0,0,0],[0.25,0,0],[0.5,0,0],[0.75,0,0],[1,0,0],[0,1,0],[0.25,1,0],[0.5,1,0],[0.75,1,0],[1,1,0],[0,0.25,0],[0,0.5,0],[0,0.75,0],[1,0.25,0],[1,0.5,0],[1,0.75,0]];outlineConnect=0;fontColor=#232F3E;fillColor=#C925D1;strokeColor=#ffffff;dashed=0;verticalLabelPosition=bottom;verticalAlign=top;align=center;html=1;fontSize=12;fontStyle=0;aspect=fixed;shape=mxgraph.aws4.resourceIcon;resIcon=mxgraph.aws4.rds;" parent="jOHFHPNlz4tJXmCEWdW9-3" vertex="1">
          <mxGeometry x="80" y="52.25" width="78" height="78" as="geometry" />
        </mxCell>
        <mxCell id="Eki0-plPLnHSJSEZB9KJ-1" value="SQS" style="sketch=0;points=[[0,0,0],[0.25,0,0],[0.5,0,0],[0.75,0,0],[1,0,0],[0,1,0],[0.25,1,0],[0.5,1,0],[0.75,1,0],[1,1,0],[0,0.25,0],[0,0.5,0],[0,0.75,0],[1,0.25,0],[1,0.5,0],[1,0.75,0]];outlineConnect=0;fontColor=#232F3E;fillColor=#E7157B;strokeColor=#ffffff;dashed=0;verticalLabelPosition=bottom;verticalAlign=top;align=center;html=1;fontSize=12;fontStyle=0;aspect=fixed;shape=mxgraph.aws4.resourceIcon;resIcon=mxgraph.aws4.sqs;" parent="jOHFHPNlz4tJXmCEWdW9-3" vertex="1">
          <mxGeometry x="80" y="213.75" width="78" height="78" as="geometry" />
        </mxCell>
        <mxCell id="NMPBw20Pyl5UZIXr4vFq-6" style="edgeStyle=orthogonalEdgeStyle;rounded=0;orthogonalLoop=1;jettySize=auto;html=1;exitX=0.25;exitY=1;exitDx=0;exitDy=0;exitPerimeter=0;entryX=0;entryY=1;entryDx=0;entryDy=0;entryPerimeter=0;" parent="jOHFHPNlz4tJXmCEWdW9-3" source="jOHFHPNlz4tJXmCEWdW9-52" target="jOHFHPNlz4tJXmCEWdW9-52" edge="1">
          <mxGeometry relative="1" as="geometry" />
        </mxCell>
        <mxCell id="jOHFHPNlz4tJXmCEWdW9-4" value="Public subnet" style="points=[[0,0],[0.25,0],[0.5,0],[0.75,0],[1,0],[1,0.25],[1,0.5],[1,0.75],[1,1],[0.75,1],[0.5,1],[0.25,1],[0,1],[0,0.75],[0,0.5],[0,0.25]];outlineConnect=0;gradientColor=none;html=1;whiteSpace=wrap;fontSize=12;fontStyle=0;container=1;pointerEvents=0;collapsible=0;recursiveResize=0;shape=mxgraph.aws4.group;grIcon=mxgraph.aws4.group_security_group;grStroke=0;strokeColor=#7AA116;fillColor=#F2F6E8;verticalAlign=top;align=left;spacingLeft=30;fontColor=#248814;dashed=0;" parent="1" vertex="1">
          <mxGeometry x="300" y="600" width="390" height="360" as="geometry" />
        </mxCell>
        <mxCell id="NMPBw20Pyl5UZIXr4vFq-1" value="" style="points=[];aspect=fixed;html=1;align=center;shadow=0;dashed=0;fillColor=#FF6A00;strokeColor=none;shape=mxgraph.alibaba_cloud.alb_application_load_balancer_02;" parent="jOHFHPNlz4tJXmCEWdW9-4" vertex="1">
          <mxGeometry x="169.5" y="213.75" width="60" height="60" as="geometry" />
        </mxCell>
        <mxCell id="GephtK8KoJchM36-7wjF-12" value="NAT&lt;div&gt;&lt;br&gt;&lt;/div&gt;" style="outlineConnect=0;dashed=0;verticalLabelPosition=bottom;verticalAlign=top;align=center;html=1;shape=mxgraph.aws3.vpc_nat_gateway;fillColor=#F58534;gradientColor=none;rotation=0;" parent="jOHFHPNlz4tJXmCEWdW9-4" vertex="1">
          <mxGeometry x="160.5" y="60" width="69" height="72" as="geometry" />
        </mxCell>
        <mxCell id="GephtK8KoJchM36-7wjF-10" value="ECR" style="outlineConnect=0;dashed=0;verticalLabelPosition=bottom;verticalAlign=top;align=center;html=1;shape=mxgraph.aws3.ecr_registry;fillColor=#F58534;gradientColor=none;" parent="1" vertex="1">
          <mxGeometry x="1360" y="240" width="57" height="60" as="geometry" />
        </mxCell>
        <mxCell id="GephtK8KoJchM36-7wjF-2" value="API GATEWAY&lt;div&gt;&lt;br&gt;&lt;/div&gt;" style="outlineConnect=0;dashed=0;verticalLabelPosition=bottom;verticalAlign=top;align=center;html=1;shape=mxgraph.aws3.api_gateway;fillColor=#D9A741;gradientColor=none;" parent="1" vertex="1">
          <mxGeometry x="1360" y="880" width="76.5" height="93" as="geometry" />
        </mxCell>
        <mxCell id="mTaDSIT27PKTmQS_zxd8-1" value="Internet Gateway" style="outlineConnect=0;dashed=0;verticalLabelPosition=bottom;verticalAlign=top;align=center;html=1;shape=mxgraph.aws3.internet_gateway;fillColor=#F58534;gradientColor=none;" parent="1" vertex="1">
          <mxGeometry x="1180" y="560" width="69" height="72" as="geometry" />
        </mxCell>
        <mxCell id="NMPBw20Pyl5UZIXr4vFq-7" value="" style="outlineConnect=0;dashed=0;verticalLabelPosition=bottom;verticalAlign=top;align=center;html=1;shape=mxgraph.aws3.internet_3;fillColor=#D2D3D3;gradientColor=none;" parent="1" vertex="1">
          <mxGeometry x="1500" y="337" width="79.5" height="54" as="geometry" />
        </mxCell>
        <mxCell id="OIsm64mJmKX4HEU2FaXx-1" value="Availability Zone" style="fillColor=none;strokeColor=#147EBA;dashed=1;verticalAlign=top;fontStyle=0;fontColor=#147EBA;whiteSpace=wrap;html=1;" vertex="1" parent="1">
          <mxGeometry x="730" y="115" width="450" height="865" as="geometry" />
        </mxCell>
        <mxCell id="OIsm64mJmKX4HEU2FaXx-2" value="Public subnet" style="points=[[0,0],[0.25,0],[0.5,0],[0.75,0],[1,0],[1,0.25],[1,0.5],[1,0.75],[1,1],[0.75,1],[0.5,1],[0.25,1],[0,1],[0,0.75],[0,0.5],[0,0.25]];outlineConnect=0;gradientColor=none;html=1;whiteSpace=wrap;fontSize=12;fontStyle=0;container=1;pointerEvents=0;collapsible=0;recursiveResize=0;shape=mxgraph.aws4.group;grIcon=mxgraph.aws4.group_security_group;grStroke=0;strokeColor=#7AA116;fillColor=#F2F6E8;verticalAlign=top;align=left;spacingLeft=30;fontColor=#248814;dashed=0;" vertex="1" parent="1">
          <mxGeometry x="770" y="210" width="390" height="360" as="geometry" />
        </mxCell>
        <mxCell id="OIsm64mJmKX4HEU2FaXx-8" value="" style="points=[];aspect=fixed;html=1;align=center;shadow=0;dashed=0;fillColor=#FF6A00;strokeColor=none;shape=mxgraph.alibaba_cloud.alb_application_load_balancer_02;" vertex="1" parent="1">
          <mxGeometry x="920" y="290" width="60" height="60" as="geometry" />
        </mxCell>
      </root>
    </mxGraphModel>
  </diagram>
</mxfile>
